<svg width="3475" height="1460" viewBox="0 0 3475 1460" fill="none" xmlns="http://www.w3.org/2000/svg">
<path d="M1009.1 1120C949.604 1200.5 872.604 1284.5 771.104 1347.5C673.104 1410.5 561.104 1459.5 428.104 1459.5C305.604 1459.5 204.104 1396.5 148.104 1344C64.1042 1263.5 18.6042 1148 4.60417 1039.5C-33.8958 703.5 172.604 262.5 491.104 66.5C564.604 21 645.104 0 722.104 0C876.104 0 991.604 108.5 1005.6 241.5C1019.6 360.5 974.104 462 841.104 528.5C774.604 563.5 739.604 560 729.104 546C722.104 535.5 725.604 518 739.604 507.5C862.104 406 865.604 322 851.604 203C841.104 126 792.104 77 736.104 77C494.604 77 144.604 619.5 193.604 1011.5C211.104 1165.5 305.604 1344 501.604 1344C564.604 1344 634.604 1326.5 694.104 1295C830.604 1225 890.104 1176 970.604 1064C981.104 1050 991.604 1032.5 1002.1 1018.5C1009.1 1004.5 1023.1 1001 1033.6 1001C1044.1 1001 1058.1 1011.5 1058.1 1029C1058.1 1039.5 1054.6 1060.5 1040.6 1078C1033.6 1085 1019.6 1106 1009.1 1120Z" fill="#556467"/>
<path d="M1376.6 1319.5C1317.1 1319.5 1282.1 1288 1268.1 1239C1229.6 1291.5 1173.6 1319.5 1117.6 1319.5C1023.1 1319.5 935.604 1239 921.604 1134C900.604 948.5 1058.1 710.5 1296.1 710.5C1397.6 710.5 1481.6 752.5 1492.1 833C1506.1 934.5 1418.6 955.5 1387.1 955.5C1359.1 955.5 1313.6 948.5 1310.1 920.5C1306.6 892.5 1369.6 910 1362.6 843.5C1359.1 801.5 1317.1 787.5 1275.1 787.5C1128.1 787.5 1047.6 990.5 1065.1 1116.5C1072.1 1172.5 1100.1 1228.5 1152.6 1228.5C1194.6 1228.5 1257.6 1169 1278.6 1078C1292.6 1018.5 1352.1 976.5 1394.1 976.5C1415.1 976.5 1432.6 987 1436.1 1008C1436.1 1015 1436.1 1025.5 1432.6 1039.5C1429.1 1067.5 1408.1 1151.5 1408.1 1172.5C1408.1 1190 1418.6 1211 1446.6 1211C1478.1 1211 1621.6 1127 1702.1 1015C1709.1 1004.5 1723.1 997.5 1733.6 997.5C1744.1 997.5 1758.1 1004.5 1758.1 1018.5C1761.6 1032.5 1754.6 1050 1737.1 1074.5C1646.1 1207.5 1446.6 1319.5 1376.6 1319.5Z" fill="#556467"/>
<path d="M3382.1 1249.5C3389.1 1309 3417.1 1347.5 3441.6 1368.5C3452.1 1375.5 3455.6 1386 3455.6 1393C3459.1 1410.5 3445.1 1424.5 3424.1 1424.5C3417.1 1424.5 3410.1 1424.5 3403.1 1421C3298.1 1379 3256.1 1309 3242.1 1242.5C3203.6 1291.5 3147.6 1323 3095.1 1323C3000.6 1323 2913.1 1242.5 2899.1 1137.5C2878.1 955.5 3042.6 717.5 3277.1 717.5C3375.1 717.5 3462.6 756 3473.1 836.5C3487.1 938 3396.1 959 3368.1 959C3336.6 959 3291.1 952 3287.6 924C3284.1 899.5 3350.6 913.5 3343.6 850.5C3340.1 808.5 3294.6 794.5 3256.1 794.5C3119.6 794.5 3028.6 973 3046.1 1120C3053.1 1179.5 3081.1 1235.5 3133.6 1235.5C3175.6 1235.5 3238.6 1176 3263.1 1085C3277.1 1025.5 3336.6 983.5 3378.6 983.5C3399.6 983.5 3417.1 994 3420.6 1018.5C3420.6 1029 3417.1 1057 3396.1 1151.5C3378.6 1186.5 3378.6 1221.5 3382.1 1249.5Z" fill="#556467"/>
<path d="M2122.1 1214.5C2153.6 1214.5 2258.6 1176 2342.6 1060.5C2353.1 1050 2363.6 1043 2374.1 1043C2388.1 1043 2398.6 1050 2402.1 1064C2402.1 1074.5 2395.1 1095.5 2377.6 1120C2283.1 1253 2122.1 1319.5 2052.1 1319.5C1978.6 1319.5 1940.1 1274 1933.1 1207.5C1929.6 1186.5 1929.6 1158.5 1936.6 1130.5C1961.1 980 2017.1 889 2013.6 861C2013.6 854 2006.6 850.5 2003.1 850.5C1957.6 850.5 1793.1 1018.5 1768.6 1130.5L1747.6 1218C1733.6 1281 1674.1 1319.5 1632.1 1319.5C1611.1 1319.5 1597.1 1309 1593.6 1288C1593.6 1281 1593.6 1270.5 1597.1 1256.5C1597.1 1256.5 1677.6 843.5 1681.1 822.5C1691.6 773.5 1709.1 724.5 1807.1 724.5C1828.1 724.5 1842.1 735 1845.6 759.5C1845.6 766.5 1845.6 777 1842.1 791L1814.1 917C1901.6 801.5 2034.6 717.5 2118.6 717.5C2153.6 717.5 2178.1 735 2185.1 773.5C2188.6 794.5 2181.6 829.5 2167.6 868C2139.6 948.5 2108.1 1064 2083.6 1165.5C2076.6 1179.5 2083.6 1214.5 2122.1 1214.5Z" fill="#556467"/>
<path d="M2675.1 731.5C2675.1 787.5 2703.1 847 2738.1 885.5C2752.1 847 2759.1 808.5 2759.1 770C2759.1 696.5 2731.1 665 2710.1 665C2685.6 665 2675.1 700 2675.1 731.5ZM2801.1 1032.5C2790.6 1032.5 2780.1 1032.5 2766.1 1029C2675.1 1162 2580.6 1253 2507.1 1291.5C2475.6 1309 2447.6 1316 2426.6 1316C2409.1 1316 2391.6 1312.5 2384.6 1298.5C2353.1 1242.5 2339.1 1134 2339.1 1018.5C2339.1 934.5 2346.1 864.5 2360.1 815.5C2377.6 763 2444.1 714 2486.1 714C2507.1 714 2524.6 724.5 2524.6 749C2524.6 756 2521.1 766.5 2517.6 777C2486.1 864.5 2472.1 948.5 2472.1 1032.5C2472.1 1078 2482.6 1155 2493.1 1193.5C2496.6 1200.5 2496.6 1211 2503.6 1211C2517.6 1211 2612.1 1116.5 2682.1 1004.5C2622.6 966 2587.6 896 2587.6 808.5C2587.6 661.5 2675.1 588 2759.1 588C2825.6 588 2885.1 637 2885.1 735C2885.1 794.5 2860.6 864.5 2825.6 931C2825.6 931 2839.6 934.5 2846.6 934.5C2899.1 934.5 2941.1 910 2962.1 885.5C2979.6 868 2993.6 854 3007.6 854C3018.1 854 3021.6 861 3021.6 871.5C3021.6 878.5 3018.1 889 3014.6 899.5C2965.6 980 2874.6 1032.5 2801.1 1032.5Z" fill="#556467"/>
</svg>
