<svg width="3809" height="911" viewBox="0 0 3809 911" fill="none" xmlns="http://www.w3.org/2000/svg">
<path fill-rule="evenodd" clip-rule="evenodd" d="M430.315 0.537685C430.564 0.941685 428.799 1.11467 426.392 0.923671C423.985 0.731671 415.141 1.31866 406.737 2.22866C305.359 13.2027 213.02 56.2837 139.582 126.871C13.0135 248.525 -32.1655 432.261 23.4225 599.272C43.2355 658.8 74.6735 712.918 117.015 760.383C161.105 809.808 219.815 851.161 282.214 876.741C287.299 878.826 291.6 880.407 291.772 880.255C291.945 880.103 291.286 871.27 290.309 860.625C287.88 834.163 287.837 779.347 290.234 762.911C291.145 756.662 303.669 700.119 318.067 637.258L344.244 522.967L340.209 512.119C332.736 492.031 329.758 475.651 329.796 454.854C329.892 402.396 354.867 359.073 392.459 346.155C399.416 343.764 402.024 343.402 412.459 343.376C431.299 343.328 442.727 347.547 452.904 358.307C461.768 367.68 466.207 380.248 467.548 399.772C468.737 417.093 465.271 433.929 449.119 489.272C432.65 545.699 428.771 562.935 428.75 579.772C428.726 599.128 433.782 612.484 445.331 623.574C459.852 637.518 486.956 644.866 507.229 640.355C543.196 632.353 589.199 587.928 613.922 537.323C631.142 502.075 638.328 470.783 638.276 431.272C638.138 326.841 580.373 259.979 480.16 248.256C465.438 246.534 438.164 246.311 425.933 247.812C393.262 251.822 359.64 265.777 331.739 286.907C321.092 294.97 301.624 313.965 293.666 324.056C262.8 363.192 246.136 411.026 248.303 454.272C250.032 488.762 262.381 526.746 279.142 549.128C282.855 554.086 284.338 557.032 284.66 560.09C285.064 563.917 276.743 606.637 273.871 615.487C272.286 620.37 267.7 624.772 264.199 624.772C257.619 624.772 238.718 612.362 225.963 599.668C195.971 569.818 174.457 523.738 167.419 474.272C165.542 461.087 165.57 431.583 167.474 415.307C179.668 311.066 245.138 228.329 344.459 191.646C399.881 171.176 470.214 165.819 538.958 176.831C602.396 186.993 656.074 215.002 690.154 255.724C729.53 302.776 748.453 364.547 746.678 440.226C746.381 452.901 745.402 468.672 744.502 475.272C737.504 526.61 720.812 571.394 693.441 612.272C647.896 680.293 578.487 719.177 507.459 716.462C480.598 715.435 455.193 707.43 434.459 693.46C426.798 688.298 415.153 676.716 411.165 670.291C409.08 666.932 407.902 665.792 407.547 666.791C407.257 667.606 400.278 692.797 392.038 722.772C383.798 752.747 376.314 779.747 375.406 782.772C369.132 803.67 347.714 849.615 330.957 878.118C326.48 885.733 322.962 892.104 323.138 892.275C323.315 892.446 331.559 894.615 341.459 897.095C360.873 901.957 382.49 905.847 403.959 908.342C419.993 910.205 463.454 910.992 480.459 909.727C542.52 905.11 597.687 890.087 652.667 862.831C699.886 839.423 739.222 810.815 775.995 773.141C850.943 696.355 895.716 596.465 904.031 487.487C905.534 467.782 904.725 423.285 902.536 405.272C891.208 312.043 856.733 231.927 797.107 160.272C776.864 135.946 739.409 101.776 711.193 81.8937C649.602 38.4937 574.581 10.6037 496.959 2.24972C481.075 0.540721 429.497 -0.784315 430.315 0.537685ZM1549.46 153.421C1531.88 156.238 1515.38 165.55 1504.29 178.913C1498.67 185.693 1492.52 198.217 1490.38 207.272C1488.25 216.273 1488.25 231.247 1490.37 240.272C1491.28 244.122 1493.9 251.097 1496.19 255.772C1499.56 262.633 1502.11 266.024 1509.41 273.354C1516.78 280.749 1520.04 283.21 1526.96 286.599C1538.73 292.366 1546.32 294.158 1558.96 294.158C1571.5 294.158 1579.23 292.355 1590.46 286.813C1608.84 277.739 1622.44 260.886 1627.62 240.772C1629.88 232.023 1629.89 215.322 1627.65 206.772C1625.38 198.094 1619.08 185.579 1613.45 178.569C1605.31 168.424 1590.54 158.901 1577.39 155.31C1571.35 153.661 1554.9 152.548 1549.46 153.421ZM1075.38 175.689C1075.15 175.918 1074.96 294.38 1074.96 438.939V701.772H1136.46H1197.96V613.772V525.772H1257.5C1330.54 525.772 1340.86 524.835 1368.46 515.687C1448.3 489.225 1491.27 414.17 1478.34 323.772C1469.94 265.114 1439.09 221.644 1388.53 197.27C1364.79 185.82 1337.47 178.758 1306.96 176.182C1298.09 175.433 1076.1 174.96 1075.38 175.689ZM2050.96 264.772V324.772H2032.46H2013.96V361.751V398.731L2034.21 399.001L2054.46 399.272L2055 513.772C2055.53 625.519 2055.6 628.488 2057.64 637.272C2066.86 676.823 2089.66 697.511 2133.3 705.934C2143.34 707.873 2148.68 708.131 2186.71 708.522L2228.96 708.955L2228.94 700.614C2228.92 696.026 2228.26 677.197 2227.46 658.772C2226.66 640.347 2225.99 623.188 2225.98 620.641L2225.96 616.011L2210.21 615.528C2193.31 615.01 2188.77 613.979 2181.65 609.051C2179.55 607.6 2176.67 604.422 2175.24 601.99C2169.96 592.987 2169.99 593.537 2169.97 492.522L2169.96 398.772H2197.96H2225.96V361.772V324.772H2197.96H2169.96V264.772V204.772H2110.46H2050.96V264.772ZM3626.96 264.764V324.772H3608.12H3589.28L3589.37 361.522L3589.46 398.272L3607.96 398.772L3626.46 399.272L3627.01 513.772C3627.61 638.164 3627.32 631.829 3633.12 649.272C3643.5 680.475 3666.74 698.693 3705.46 705.957C3715.21 707.787 3721.48 708.073 3760.71 708.485L3804.96 708.949V662.474V615.999L3787.71 615.549C3772.78 615.159 3769.66 614.791 3764.55 612.805C3756.08 609.515 3750.65 603.75 3748.03 595.263C3746 588.685 3745.96 586.804 3745.96 493.667V398.772H3777.46H3808.96V361.772V324.772H3777.47H3745.97L3745.72 265.022L3745.46 205.272L3686.21 205.014L3626.96 204.756V264.764ZM1309.96 289.207C1331.51 294.19 1346.29 305.102 1354.94 322.429C1360.5 333.536 1363.02 351.222 1361.05 365.272C1356.31 399.165 1334.12 420.572 1299.46 424.696C1294.29 425.311 1270.79 425.768 1244.21 425.769L1197.96 425.772V356.194V286.616L1250.21 287.045C1295.2 287.414 1303.5 287.714 1309.96 289.207ZM1860.46 314.404C1845.43 316.637 1830.75 320.896 1820.46 326.009C1803.69 334.345 1785.09 350.071 1770.76 368.022C1759.81 381.745 1759.96 381.976 1759.96 350.772V324.772H1702.46H1644.96V513.272V701.772H1704.43H1763.9L1764.19 588.522L1764.48 475.272L1766.71 467.272C1767.94 462.872 1771.03 455.016 1773.59 449.815C1785.43 425.774 1809.27 412.305 1836.46 414.301C1864.2 416.336 1880.45 429.84 1888.16 457.272L1890.41 465.272L1890.73 583.522L1891.04 701.772H1950.53H2010.03L2009.7 570.522C2009.37 440.714 2009.35 439.17 2007.24 429.995C2004.28 417.153 2001.43 408.79 1996.43 398.272C1981.78 367.509 1956.27 341.629 1925.46 326.287C1906.16 316.675 1898.03 314.569 1878.96 314.232C1870.43 314.081 1862.11 314.159 1860.46 314.404ZM2387.96 315.223C2343.88 321.538 2307.89 339.498 2278.4 369.9C2251 398.142 2233.31 433.217 2226 473.806C2213.44 543.52 2233.29 615.087 2277.44 659.297C2305.18 687.069 2338.16 703.285 2381.46 710.443C2395.21 712.715 2440.91 713.02 2455.96 710.94C2530.3 700.66 2583.88 659.297 2603.52 597.022L2605.8 589.772L2546.13 589.846L2486.46 589.919L2481.96 599.03C2471.69 619.827 2460.68 625.578 2429.46 626.476C2407.95 627.094 2397.67 625.264 2383.24 618.243C2366.75 610.22 2353.2 594.821 2345.49 575.346C2342.46 567.667 2337.96 550.834 2337.96 547.144V544.772H2475.46H2612.96V537.378C2612.96 527.777 2611.37 512.19 2608.93 497.772C2599.42 441.76 2572.94 384.987 2545.17 361.092C2518.04 337.75 2488.08 323.374 2452.48 316.625C2438.26 313.927 2402.44 313.149 2387.96 315.223ZM3015.46 314.877C2969.42 320.427 2926.75 342.278 2897.71 375.177C2872.74 403.454 2856.7 439.517 2850.3 481.772C2847.89 497.633 2847.91 531.708 2850.33 548.222C2861.61 625.166 2908.01 682.537 2977.34 705.273C3001.71 713.263 3020.82 716.111 3049.96 716.094C3088.08 716.072 3114.42 710.612 3143.94 696.611C3179.71 679.64 3207.48 652.383 3222.12 619.88C3225.58 612.207 3230.96 597.176 3230.96 595.192C3230.96 593.981 3222.23 593.773 3171.71 593.776L3112.46 593.779L3110.56 598.4C3107.59 605.616 3098 615.155 3089.59 619.261C3079.13 624.369 3072.14 625.913 3056.87 626.498C3030.09 627.523 3012.34 621.107 2995.41 604.272C2986.21 595.12 2980.91 587.505 2976.3 576.777C2972.92 568.94 2968.65 554.95 2967.66 548.522L2967.08 544.772H3103.02H3238.96L3238.95 536.522C3238.94 531.985 3238.48 522.872 3237.93 516.272C3234.54 476.021 3226.46 444.967 3211.78 415.772C3200.07 392.499 3186.96 375.242 3168.62 358.991C3138.84 332.598 3115.51 320.695 3083.88 315.767C3074.23 314.263 3025.78 313.633 3015.46 314.877ZM3377.46 314.813C3344.82 318.031 3317.41 326.056 3296.64 338.469C3286.7 344.413 3271.46 358.75 3265.42 367.837C3251.99 388.037 3246.14 411.752 3247.23 441.601C3248.29 470.87 3257.12 492.199 3275.87 510.798C3290.4 525.212 3309.88 536.251 3335.83 544.778C3354.3 550.851 3366.07 553.454 3403.46 559.74C3437.21 565.414 3450.54 568.515 3459.45 572.766C3474.09 579.757 3479.82 591.628 3476.99 609.135C3474.39 625.229 3466.43 632.817 3448.44 636.345C3436.9 638.609 3407.08 638.595 3396.46 636.321C3386.35 634.158 3373.84 628.3 3367.76 622.881C3361.73 617.502 3355.52 607.983 3352.88 600.034L3350.8 593.772H3295.04H3239.29L3240.13 600.022C3248.21 660.086 3297.84 703.64 3372.46 716.165C3394.84 719.923 3430.8 721.067 3453.96 718.759C3502.51 713.919 3539.3 699.19 3562.33 675.369C3593.58 643.034 3602.28 586.844 3582.49 545.066C3573.92 526.976 3561.42 512.882 3543.07 500.604C3529.58 491.584 3516.06 485.144 3497.36 478.829C3478.87 472.589 3463.07 469.062 3430.27 463.855C3403.79 459.653 3397.37 458.284 3384.69 454.136C3364.24 447.448 3355.61 435.023 3358.98 417.134C3361.28 404.988 3368.54 397.697 3381.96 394.076C3391.47 391.508 3423.73 391.538 3432.96 394.123C3452.76 399.666 3465.89 412.975 3469.22 430.881L3470.31 436.772H3526.07H3581.83L3581.33 433.022C3572.5 367.214 3529.52 328.105 3452.96 316.2C3440.68 314.29 3391.86 313.393 3377.46 314.813ZM2831.24 321.871C2807.69 324.613 2787.12 334.219 2769.79 350.566C2762.7 357.258 2750.23 372.952 2745.93 380.606C2744.53 383.105 2742.86 384.772 2741.77 384.772C2740.06 384.772 2739.96 383.091 2739.96 354.772V324.772H2682.46H2624.96V515.082V705.393L2683.71 705.23C2716.02 705.14 2742.8 705.001 2743.21 704.919C2743.62 704.838 2743.96 663.023 2743.96 611.996C2743.96 554.336 2744.35 516.111 2744.99 511.006C2749.94 471.51 2770.58 441.974 2800.96 430.894C2814.26 426.041 2823.87 424.566 2841.6 424.649L2854.82 424.711L2855.35 419.492C2855.65 416.621 2856.36 398.972 2856.94 380.272C2857.51 361.572 2858.27 340.535 2858.61 333.522L2859.24 320.772L2848.85 320.902C2843.13 320.973 2835.21 321.409 2831.24 321.871ZM1499.96 515.077V705.382L1558.95 705.376C1611.38 705.371 1618 705.197 1618.36 703.821C1618.59 702.969 1618.74 617.335 1618.7 513.522L1618.63 324.772H1559.29H1499.96V515.077ZM2428.57 399.851C2453.43 403.308 2474.17 420.556 2483.94 445.885C2487.14 454.179 2489.96 465.866 2489.96 470.837V473.772H2415.39C2344.85 473.772 2340.85 473.678 2341.34 472.022C2341.62 471.059 2342.54 467.546 2343.38 464.213C2351.8 430.89 2379.12 404.31 2409.49 399.885C2418 398.646 2419.88 398.642 2428.57 399.851ZM3063.53 401.294C3071.28 403.264 3082.31 408.741 3087.96 413.419C3102.61 425.559 3113.1 446.238 3115.54 467.77L3116.22 473.772H3041.52C2970.86 473.772 2966.85 473.677 2967.32 472.022C2967.59 471.059 2968.1 468.697 2968.46 466.772C2969.88 459.13 2974.35 445.945 2977.94 438.803C2989.49 415.849 3007.05 403.299 3032.46 399.846C3041.26 398.65 3055.78 399.327 3063.53 401.294Z" fill="#556467"/>
</svg>
