<svg width="5491" height="681" viewBox="0 0 5491 681" fill="none" xmlns="http://www.w3.org/2000/svg">
<path d="M567.196 0C415.943 0 321.412 75.6655 283.604 227.007C340.326 151.331 406.507 122.955 482.134 141.879C525.281 152.661 556.12 183.998 590.261 218.661C645.868 275.134 710.237 340.5 850.821 340.5C1002.08 340.5 1096.61 264.835 1134.42 113.493C1077.7 189.169 1011.52 217.545 935.895 198.621C892.747 187.839 861.909 156.502 827.768 121.839C772.149 65.3665 707.792 0 567.196 0ZM283.604 340.5C132.35 340.5 37.8188 416.165 0 567.507C56.7229 491.831 122.892 463.455 198.519 482.379C241.678 493.183 272.506 524.498 306.647 559.161C362.254 615.634 426.633 681 567.207 681C718.472 681 813.003 605.335 850.821 453.993C794.098 529.669 727.918 558.045 652.291 539.121C609.143 528.339 578.305 497.002 544.164 462.35C488.556 405.866 424.188 340.5 283.604 340.5Z" fill="#556467"/>
<path d="M1701.54 286.945H1602.55V478.635C1602.55 529.755 1636.07 528.95 1701.54 525.753V603.232C1569.02 619.206 1516.33 582.462 1516.33 478.635V286.945H1442.88V203.877H1516.33V96.5961L1602.54 71.0417V203.877H1701.54V286.945ZM2078.89 203.877H2165.1V603.243H2078.89V545.74C2048.54 588.062 2001.45 613.627 1939.17 613.627C1830.61 613.627 1740.4 521.773 1740.4 403.571C1740.4 284.564 1830.61 193.514 1939.18 193.514C2001.45 193.514 2048.55 219.068 2078.89 260.597V203.877ZM1952.75 531.364C2024.59 531.364 2078.89 477.842 2078.89 403.571C2078.89 329.3 2024.6 275.777 1952.75 275.777C1880.89 275.777 1826.62 329.289 1826.62 403.571C1826.62 477.852 1880.9 531.364 1952.75 531.364ZM2308.79 143.972C2278.45 143.972 2253.71 118.406 2253.71 88.8504C2253.74 74.2429 2259.55 60.2419 2269.87 49.9128C2280.2 39.5838 2294.19 33.7684 2308.79 33.74C2323.39 33.7684 2337.39 39.5838 2347.71 49.9128C2358.03 60.2419 2363.85 74.2429 2363.87 88.8504C2363.87 118.406 2339.13 143.972 2308.79 143.972ZM2265.69 603.221V203.877H2351.9V603.243L2265.69 603.221ZM2451.68 603.221V20.1797H2537.9V603.232L2451.68 603.221ZM3097.51 203.867H3188.51L3063.18 603.243H2978.56L2895.54 334.074L2811.72 603.243H2727.1L2601.77 203.888H2692.77L2770.21 479.44L2854.03 203.888H2936.25L3019.27 479.44L3097.51 203.867ZM3295.49 143.972C3265.15 143.972 3240.41 118.406 3240.41 88.8504C3240.44 74.2429 3246.25 60.2419 3256.57 49.9128C3266.9 39.5838 3280.89 33.7684 3295.49 33.74C3310.09 33.7684 3324.08 39.5838 3334.41 49.9128C3344.73 60.2419 3350.54 74.2429 3350.57 88.8504C3350.57 118.406 3325.82 143.972 3295.49 143.972ZM3252.39 603.221V203.877H3338.6V603.243L3252.39 603.221ZM3648.33 193.482C3737.75 193.482 3801.61 254.192 3801.61 358.019V603.221H3715.4V366.816C3715.4 306.116 3680.26 274.168 3625.97 274.168C3569.3 274.168 3524.6 307.715 3524.6 389.174V603.243H3438.39V203.877H3524.6V254.997C3550.95 213.468 3594.05 193.493 3648.34 193.493L3648.33 193.482ZM4210.35 44.1356H4296.56V603.243H4210.35V545.74C4180 588.062 4132.91 613.627 4070.64 613.627C3962.08 613.627 3871.87 521.773 3871.87 403.571C3871.87 284.564 3962.08 193.514 4070.64 193.514C4132.91 193.514 4180.01 219.068 4210.35 260.597V44.1356ZM4084.21 531.364C4156.05 531.364 4210.34 477.842 4210.34 403.571C4210.34 329.3 4156.05 275.777 4084.21 275.777C4012.36 275.777 3958.08 329.289 3958.08 403.571C3958.08 477.852 4012.35 531.364 4084.21 531.364ZM4585.53 613.627C4464.99 613.627 4374.79 521.773 4374.79 403.571C4374.79 284.564 4464.99 193.514 4585.53 193.514C4663.77 193.514 4731.63 234.238 4763.56 296.536L4689.32 339.663C4671.75 302.136 4632.64 278.17 4584.74 278.17C4514.48 278.17 4461 331.682 4461 403.571C4461 475.46 4514.48 528.961 4584.74 528.961C4632.64 528.961 4671.75 504.201 4690.92 467.467L4765.15 509.79C4731.63 572.893 4663.77 613.627 4585.54 613.627H4585.53ZM4907.25 314.109C4907.25 386.792 5121.99 342.86 5121.99 490.629C5121.99 570.5 5052.54 613.627 4966.33 613.627C4886.5 613.627 4829.01 577.688 4803.47 520.185L4877.71 477.048C4890.49 512.987 4922.42 534.55 4966.33 534.55C5004.64 534.55 5034.18 521.784 5034.18 489.825C5034.18 418.74 4819.44 458.681 4819.44 315.707C4819.44 240.632 4884.09 193.514 4965.52 193.514C5030.98 193.514 5085.27 223.853 5113.21 276.571L5040.57 317.306C5026.2 286.162 4998.26 271.776 4965.52 271.776C4934.39 271.776 4907.25 285.357 4907.25 314.109ZM5275.27 314.109C5275.27 386.792 5490.01 342.86 5490.01 490.629C5490.01 570.5 5420.56 613.627 5334.34 613.627C5254.51 613.627 5197.04 577.688 5171.48 520.185L5245.73 477.048C5258.5 512.987 5290.44 534.55 5334.34 534.55C5372.66 534.55 5402.19 521.784 5402.19 489.825C5402.19 418.74 5187.45 458.681 5187.45 315.707C5187.45 240.632 5252.11 193.514 5333.55 193.514C5399 193.514 5453.29 223.853 5481.23 276.571L5408.58 317.306C5394.21 286.162 5366.27 271.776 5333.55 271.776C5302.41 271.776 5275.27 285.357 5275.27 314.109Z" fill="#556467"/>
</svg>
